<svg xmlns="http://www.w3.org/2000/svg" viewBox="0 0 1200 420" role="img" aria-labelledby="title desc">
  <title id="title">Quanta Color workbench hero</title>
  <desc id="desc">A color-science workbench surface with gamut plots, tone curves, swatches, and spectral bands.</desc>
  <defs>
    <linearGradient id="bg" x1="0" y1="0" x2="1" y2="1">
      <stop offset="0" stop-color="#08111c"/>
      <stop offset="0.52" stop-color="#102033"/>
      <stop offset="1" stop-color="#241e2d"/>
    </linearGradient>
    <linearGradient id="spectrum" x1="0" y1="0" x2="1" y2="0">
      <stop offset="0" stop-color="#6b5cff"/>
      <stop offset="0.18" stop-color="#0099ff"/>
      <stop offset="0.36" stop-color="#00c7a6"/>
      <stop offset="0.56" stop-color="#b6d957"/>
      <stop offset="0.75" stop-color="#ffb74a"/>
      <stop offset="1" stop-color="#ff4e6a"/>
    </linearGradient>
    <filter id="soft" x="-20%" y="-20%" width="140%" height="140%">
      <feGaussianBlur stdDeviation="14"/>
    </filter>
  </defs>
  <rect width="1200" height="420" rx="28" fill="url(#bg)"/>
  <g opacity="0.28" stroke="#30435c" stroke-width="1">
    <path d="M0 92h1200M0 162h1200M0 232h1200M0 302h1200M0 372h1200"/>
    <path d="M120 0v420M240 0v420M360 0v420M480 0v420M600 0v420M720 0v420M840 0v420M960 0v420M1080 0v420"/>
  </g>
  <circle cx="287" cy="198" r="118" fill="url(#spectrum)" opacity="0.28" filter="url(#soft)"/>
  <circle cx="287" cy="198" r="94" fill="none" stroke="url(#spectrum)" stroke-width="18"/>
  <path d="M287 198l68-58M287 198l-78 44M287 198l14 92" stroke="#f5f7ff" stroke-width="5" stroke-linecap="round" opacity="0.9"/>
  <rect x="518" y="108" width="256" height="176" rx="16" fill="#0f1d30" stroke="#38506e" stroke-width="3"/>
  <path d="M548 246C586 238 600 172 637 174C674 176 681 224 718 148C736 112 752 122 758 118" fill="none" stroke="#ffb74a" stroke-width="8" stroke-linecap="round"/>
  <path d="M548 246C586 238 600 172 637 174C674 176 681 224 718 148C736 112 752 122 758 118" fill="none" stroke="#ffb74a" stroke-width="24" stroke-linecap="round" opacity="0.18" filter="url(#soft)"/>
  <rect x="834" y="112" width="62" height="62" rx="12" fill="#ff6030"/>
  <rect x="914" y="112" width="62" height="62" rx="12" fill="#58a6ff"/>
  <rect x="994" y="112" width="62" height="62" rx="12" fill="#42d392"/>
  <rect x="834" y="196" width="62" height="62" rx="12" fill="#f6c85f"/>
  <rect x="914" y="196" width="62" height="62" rx="12" fill="#b987ff"/>
  <rect x="994" y="196" width="62" height="62" rx="12" fill="#f06292"/>
  <rect x="120" y="318" width="960" height="18" rx="9" fill="url(#spectrum)"/>
  <text x="120" y="370" fill="#f8fbff" font-family="Inter, Arial, sans-serif" font-size="48" font-weight="700">Quanta Color</text>
  <text x="430" y="370" fill="#d5deec" font-family="Inter, Arial, sans-serif" font-size="24">measurable color tools for creative and technical work</text>
</svg>
